<svg t="1730181006635" class="icon" viewBox="0 0 1024 1024" version="1.1" xmlns="http://www.w3.org/2000/svg" p-id="8317" width="20" height="20"><path d="M964.608 658.285714h-118.930286V484.571429a9.142857 9.142857 0 0 0-9.069714-9.142858H553.106286V365.714286H676.571429a18.285714 18.285714 0 0 0 18.285714-18.285715V18.285714A18.285714 18.285714 0 0 0 676.571429 0h-329.142858a18.285714 18.285714 0 0 0-18.285714 18.285714v329.142857c0 10.093714 8.192 18.285714 18.285714 18.285715h123.465143v109.714285H187.465143a9.142857 9.142857 0 0 0-9.216 9.142858V658.285714H59.465143a18.285714 18.285714 0 0 0-18.285714 18.285715v329.142857c0 10.020571 8.192 18.285714 18.285714 18.285714h329.142857a18.285714 18.285714 0 0 0 18.285714-18.285714v-329.142857a18.285714 18.285714 0 0 0-18.285714-18.285715h-128V557.714286h502.784V658.285714h-128a18.285714 18.285714 0 0 0-18.285714 18.285715v329.142857c0 10.020571 8.265143 18.285714 18.285714 18.285714h329.142857a18.285714 18.285714 0 0 0 18.285714-18.285714v-329.142857a18.285714 18.285714 0 0 0-18.285714-18.285715z m-644.608 86.893715v191.926857H128v-191.926857h192z m96.036571-466.358858V86.893714h192v192H415.963429z m479.963429 658.285715H704v-191.926857h192v191.926857z" fill="#000000" p-id="8318"></path></svg>