<svg t="1729128831124" class="icon" viewBox="0 0 1024 1024" version="1.1" xmlns="http://www.w3.org/2000/svg" p-id="9287" width="20" height="20"><path d="M827.52 128H228.48A99.84 99.84 0 0 0 128 228.48v448a99.84 99.84 0 0 0 99.84 99.52h599.68a99.84 99.84 0 0 0 100.48-99.2v-448A99.84 99.84 0 0 0 827.52 128z m49.92 548.16a49.92 49.92 0 0 1-49.92 49.92H228.48a49.92 49.92 0 0 1-49.92-49.92v-448a49.92 49.92 0 0 1 49.92-49.6h599.04a49.92 49.92 0 0 1 49.92 49.92z" p-id="9288"></path><path d="M827.52 784.32H228.48a107.84 107.84 0 0 1-107.84-107.52v-448a108.16 108.16 0 0 1 107.84-108.16h599.04a108.16 108.16 0 0 1 107.84 107.84v448a107.84 107.84 0 0 1-107.84 107.84zM228.48 136.64a92.16 92.16 0 0 0-91.84 91.84v448A91.84 91.84 0 0 0 228.48 768h599.04a91.84 91.84 0 0 0 91.84-91.52v-448a92.16 92.16 0 0 0-91.84-91.84zM827.52 736H228.48a58.24 58.24 0 0 1-57.92-57.92v-448a58.24 58.24 0 0 1 57.92-59.52h599.04a58.24 58.24 0 0 1 57.92 57.92v448A58.24 58.24 0 0 1 827.52 736zM228.48 186.56a41.92 41.92 0 0 0-41.92 41.92v448a41.92 41.92 0 0 0 41.92 41.92h599.04a41.92 41.92 0 0 0 41.92-41.92v-448a41.92 41.92 0 0 0-41.92-41.92zM822.72 845.44H233.28a21.12 21.12 0 0 0-16 7.36 26.24 26.24 0 0 0-6.72 17.6 24 24 0 0 0 22.72 24.96h589.44a24 24 0 0 0 22.72-24.96 26.24 26.24 0 0 0-6.72-17.6 21.12 21.12 0 0 0-16-7.36z" p-id="9289"></path><path d="M822.72 903.36H233.28a32 32 0 0 1-32-32 32 32 0 0 1 8.96-23.04 29.44 29.44 0 0 1 21.76-9.92h590.72a29.44 29.44 0 0 1 21.76 9.92 32 32 0 0 1 8.96 23.04 32 32 0 0 1-30.72 32zM233.28 853.44a12.48 12.48 0 0 0-9.92 4.8 17.6 17.6 0 0 0-4.8 12.16 16 16 0 0 0 14.72 16.96h589.44a16 16 0 0 0 14.72-16.96 18.88 18.88 0 0 0-4.8-12.48 13.12 13.12 0 0 0-9.92-4.48z" p-id="9290"></path><path d="M528 517.12h-86.08v-88.64h86.08V250.88H312.64v177.6h86.08v133.12h128v88.64h215.36v-177.6H528z m-172.16-221.76h128V384h-128z m215.36 221.76h128v88.64h-128z" p-id="9291"></path></svg>