<svg t="1729128785618" class="icon" viewBox="0 0 1024 1024" version="1.1" xmlns="http://www.w3.org/2000/svg" p-id="8089" width="20" height="20"><path d="M836.2 957.3H189.8c-50.7 0-92-41.3-92-92V158.2c0-50.7 41.3-92 92-92h646.5c50.7 0 92 41.3 92 92v707.1c-0.1 50.7-41.3 92-92.1 92zM189.8 130.2c-15.4 0-28 12.6-28 28v707.1c0 15.4 12.6 28 28 28h646.5c15.4 0 28-12.6 28-28V158.2c0-15.4-12.6-28-28-28H189.8z" p-id="8090"></path><path d="M781 251.7H388c-17.7 0-32 14.3-32 32s14.3 32 32 32h393c17.7 0 32-14.3 32-32s-14.3-32-32-32z m-501 0c-17.7 0-32 14.3-32 32s14.3 32 32 32 32-14.3 32-32-14.3-32-32-32zM781 476.7H388c-17.7 0-32 14.3-32 32s14.3 32 32 32h393c17.7 0 32-14.3 32-32s-14.3-32-32-32z m-501 0c-17.7 0-32 14.3-32 32s14.3 32 32 32 32-14.3 32-32-14.3-32-32-32zM781 701.7H388c-17.7 0-32 14.3-32 32s14.3 32 32 32h393c17.7 0 32-14.3 32-32s-14.3-32-32-32z m-501 0c-17.7 0-32 14.3-32 32s14.3 32 32 32 32-14.3 32-32-14.3-32-32-32z" p-id="8091"></path></svg>