<svg t="1740105575007" class="icon" viewBox="0 0 1024 1024" version="1.1" xmlns="http://www.w3.org/2000/svg" p-id="7984" width="20" height="20"><path d="M786.016 131.008q-4-15.008-16.992-24.512t-28.992-9.504H278.016q-16 0-28.992 9.504t-16.992 24.512q-3.008 8-68 243.008-68 244.992-68 248v256.992q0 20 14.496 34.496T145.024 928h732.992q20 0 34.496-14.496t14.496-34.496L928 614.016zM864 672v192.992H159.008V672H864z m-3.008-63.008H161.984L288.992 160h440z m-272.992 217.024q12.992 0 22.496-9.504t9.504-22.496v-51.008q0-12.992-9.504-22.496t-22.496-9.504-22.016 9.504-8.992 22.496v51.008q0 12.992 8.992 22.496t22.016 9.504z m103.008 0q12.992 0 22.496-9.504t9.504-22.496v-51.008q0-12.992-9.504-22.496t-22.496-9.504-22.016 9.504-8.992 22.496v51.008q0 12.992 8.992 22.496t22.016 9.504z m103.008 0q12.992 0 22.016-9.504t8.992-22.496v-51.008q0-12.992-8.992-22.496t-22.016-9.504-22.496 9.504-9.504 22.496v51.008q0 12.992 9.504 22.496t22.496 9.504z" p-id="7985"></path></svg>