<?xml version="1.0" standalone="no"?><!DOCTYPE svg PUBLIC "-//W3C//DTD SVG 1.1//EN" "http://www.w3.org/Graphics/SVG/1.1/DTD/svg11.dtd"><svg t="1669027357147" class="icon" viewBox="0 0 1194 1024" version="1.1" xmlns="http://www.w3.org/2000/svg" p-id="28626" xmlns:xlink="http://www.w3.org/1999/xlink" width="23.203125" height="20"><path d="M75.2 0h1044.146667c20.28 1.413333 40 10.426667 53.8 25.44 12.706667 13.413333 20.16 31.373333 21.52 49.746667v873.546666c-1.4 19.92-10.12 39.306667-24.693334 53.053334-13.506667 13.133333-31.786667 20.826667-50.493333 22.213333H725.333333c0-17.773333-0.013333-35.56 0-53.333333 129.786667-0.013333 259.56 0.04 389.333334-0.026667 14.266667 0.373333 27.066667-12.44 26.64-26.706667 0.04-287.96 0.053333-575.933333 0-863.906666 0.44-14.8-13.293333-27.706667-28-26.706667-344.426667 0.053333-688.866667-0.04-1033.293334 0.04-14.2-0.373333-26.986667 12.346667-26.64 26.56-0.093333 284.933333-0.013333 569.88-0.053333 854.826667 0.08 6.493333-0.6 13.32 2.053333 19.453333 3.946667 9.746667 14.053333 16.586667 24.613334 16.44 16 0.093333 32-0.013333 48.013333 0.026667v53.333333H75.226667c-19.653333-1.413333-38.8-9.906667-52.493334-24.16C9.293333 986.253333 1.373333 967.733333 0 948.746667V75.266667c1.373333-19.013333 9.32-37.56 22.773333-51.146667C36.466667 9.893333 55.573333 1.426667 75.2 0z" p-id="28627"></path><path d="M760.64 171.506667c2.853333-0.64 5.786667-0.813333 8.72-0.84 91.093333 0.026667 182.2-0.026667 273.293333 0.026666 17.8-0.453333 33.84 15.48 33.32 33.306667 0.52 17.8-15.48 33.733333-33.24 33.32-91.12 0.04-182.253333-0.013333-273.373333 0.026667-9.533333 0.306667-19.146667-3.506667-25.626667-10.533334-8.026667-8.333333-11.066667-21.053333-7.72-32.12 3.173333-11.453333 13.026667-20.653333 24.626667-23.186666zM366.04 256.973333c38.413333-4.173333 78.173333 5.2 110.533333 26.333334 29.173333 18.773333 52.346667 46.666667 65.413334 78.8 14.626667 35.453333 16.64 75.92 5.773333 112.68-11.373333 39.16-37.44 73.8-71.84 95.666666-25.36 16.32-55.16 25.653333-85.306667 26.72-35.8 1.506667-72-8.68-101.68-28.786666-32.853333-21.946667-57.706667-55.64-68.693333-93.6-10.88-36.76-8.853333-77.213333 5.76-112.666667 13.64-33.613333 38.4-62.533333 69.413333-81.32 21.386667-13.04 45.706667-21.293333 70.626667-23.826667m3.826667 53.226667c-35.733333 4.093333-68.746667 25.866667-86.88 56.88-13.906667 23.306667-19.2 51.533333-14.8 78.306667 4.24 26.933333 18.4 52.12 39.04 69.906666 18.333333 15.986667 41.746667 26.04 65.986666 28.186667 22.44 2.106667 45.466667-2.413333 65.373334-13 25.613333-13.413333 45.893333-36.626667 55.706666-63.826667 9.36-25.546667 9.36-54.4 0-79.946666-9.6-26.626667-29.226667-49.44-54.066666-62.973334-21.266667-11.746667-46.266667-16.48-70.36-13.533333zM760.68 342.16c2.826667-0.626667 5.746667-0.8 8.653333-0.84 91.12 0.04 182.24-0.026667 273.36 0.04 17.8-0.44 33.826667 15.533333 33.28 33.36 0.48 17.826667-15.586667 33.746667-33.36 33.266667-91.12 0.04-182.226667-0.013333-273.333333 0.026666-9.48 0.28-19.013333-3.506667-25.493333-10.466666-8.066667-8.346667-11.133333-21.106667-7.76-32.213334 3.186667-11.453333 13.053333-20.64 24.653333-23.173333zM760.666667 512.826667c2.826667-0.626667 5.746667-0.8 8.653333-0.826667 91.093333 0.026667 182.2-0.026667 273.306667 0.026667 10.64-0.093333 21.093333 5.32 27.213333 14.026666 7.346667 10.08 8.146667 24.4 2.066667 35.28-5.653333 10.493333-17.253333 17.426667-29.2 17.306667-91.12 0.066667-182.24 0-273.36 0.04-9.506667 0.293333-19.08-3.493333-25.573334-10.48-8.04-8.333333-11.106667-21.04-7.773333-32.12 3.16-11.48 13.04-20.72 24.666667-23.253333zM711.133333 607.093333c8.866667-8.88 22.893333-11.906667 34.64-7.533333 11.96 4.186667 20.866667 15.706667 21.84 28.333333 1 9.946667-2.893333 20.08-10.04 27.013334-53.88 53.826667-107.666667 107.746667-161.586666 161.533333 1.866667 17.12 1.253333 34.36 1.346666 51.546667V1024H170.666667V862.626667c0.066667-15.546667-0.48-31.16 1.506666-46.613334 5.2-45.226667 25.626667-88.453333 56.986667-121.413333 31.346667-33.173333 73.586667-55.933333 118.64-63.493333 47.533333-8.266667 97.826667 0.16 139.92 23.8 36.746667 20.36 67.093333 51.893333 86.266667 89.266666 45.76-45.653333 91.386667-91.44 137.146666-137.08m-411.946666 98.666667c-39.373333 24.44-67.186667 66.72-73.52 112.68-2.2 14.213333-1.586667 28.613333-1.666667 42.946667V970.666667h320c-0.013333-43.12 0.013333-86.226667-0.013333-129.346667 0-20.96-4.106667-41.906667-12.213334-61.24-15.866667-38.44-47.293333-70.133333-85.666666-86.16-47.04-20.253333-103.746667-15.72-146.92 11.84z" p-id="28628"></path></svg>